<?xml version="1.0" standalone="no"?>
<!DOCTYPE svg PUBLIC "-//W3C//DTD SVG 1.1//EN" "http://www.w3.org/Graphics/SVG/1.1/DTD/svg11.dtd" >
<svg xmlns="http://www.w3.org/2000/svg">
<metadata>
This is a custom SVG webfont generated by Font Squirrel.
Copyright   : Digital font data licensed from the WSIFonts Collection  Copyright c1992 WSI  All Rights Reserved  Redistribution strictly prohibited
</metadata>
<defs>
<font id="SliderRegular" horiz-adv-x="989" >
<font-face units-per-em="2048" ascent="1638" descent="-410" />
<missing-glyph horiz-adv-x="614" />
<glyph unicode=" "  horiz-adv-x="614" />
<glyph unicode="&#x09;" horiz-adv-x="614" />
<glyph unicode="&#xa0;" horiz-adv-x="614" />
<glyph unicode="!" horiz-adv-x="618" d="M162 4v250h293v-250h-293zM162 373v1061h289v-1061h-289z" />
<glyph unicode="&#x22;" horiz-adv-x="653" d="M82 864v535h176v-535h-176zM399 864v535h176v-535h-176z" />
<glyph unicode="#" horiz-adv-x="1521" d="M45 395l78 197h268l82 237h-283l70 193h283l145 403h201l-133 -401h239l140 401h206l-139 -401h268l-69 -193h-268l-80 -237h274l-63 -197h-281l-145 -401h-203l139 401h-239l-150 -401h-197l134 399h-277zM594 588h250l84 243h-246z" />
<glyph unicode="$" horiz-adv-x="1486" d="M86 1004q0 225 125 328.5t371 103.5h96v127h106v-127h535v-254h-535v-348h203q166 0 264 -66q145 -98 146 -338q0 -225 -111.5 -326.5t-372.5 -101.5h-129v-137h-106v137h-535v250h535v328l-111 2q-262 0 -371.5 101.5t-109.5 320.5zM377 999q0 -100 84 -141 q57 -29 149 -29q25 0 41.5 1t26.5 4v348q-154 0 -213 -27q-88 -39 -88 -156zM784 252q12 -2 26.5 -3t39.5 -1q102 0 162 28q94 45 94 154q0 68 -55 107q-68 47 -199 47q-25 0 -41 -1t-27 -3v-328z" />
<glyph unicode="%" horiz-adv-x="1822" d="M57 1051q0 221 105 317q90 82 262 82q205 0 291 -117q72 -98 71 -282q0 -231 -110 -326q-86 -74 -252 -74t-252 74q-115 99 -115 326zM217 1051q0 -274 207 -275q205 0 205 275q0 147 -64 217q-53 57 -141 57q-96 0 -145 -55q-62 -67 -62 -219zM553 4l553 1426h143 l-551 -1426h-145zM1036 385q0 221 105 317q90 82 260 82q207 0 293 -116q72 -96 71 -283q0 -229 -112 -326q-86 -74 -252 -73q-166 0 -252 73q-113 97 -113 326zM1200 381q0 -274 207 -275q205 0 205 275q0 147 -64 217q-53 57 -141 57q-96 0 -145 -55q-62 -67 -62 -219z " />
<glyph unicode="&#x26;" horiz-adv-x="1591" d="M113 1061q0 168 114.5 270.5t309.5 102.5h475v-258h-398q-92 0 -154.5 -43t-62.5 -123q0 -86 56.5 -132.5t177.5 -46.5h45v-237h-45q-82 0 -131 -25q-86 -43 -86 -149q0 -80 64.5 -138.5t166.5 -58.5q201 0 303 131q61 80 99 240h-197v237h678v-239h-174 q-39 -170 -103 -285q-84 -154 -219 -235q-156 -96 -389 -97q-221 0 -350 74q-178 102 -178 334q0 106 42 177t146 145q-94 74 -123 112q-67 94 -67 244z" />
<glyph unicode="'" horiz-adv-x="389" d="M82 1192v242h227v-148q2 -16 2 -35q0 -55 -18 -106q-29 -78 -98 -141v188h-113z" />
<glyph unicode="(" horiz-adv-x="688" d="M121 592q0 410 305 842h176q-70 -139 -104 -224q-61 -147 -92 -280q-39 -166 -39 -340v-62q0 -147 32 -280q53 -215 203 -498h-176q-158 229 -227 416q-78 207 -78 426z" />
<glyph unicode=")" horiz-adv-x="688" d="M90 -250q70 139 105 223q61 147 92 281q39 166 39 340v61q0 147 -33 281q-53 215 -203 498h176q158 -229 228 -416q78 -207 77 -426q0 -410 -305 -842h-176z" />
<glyph unicode="*" d="M152 967l190 106l-190 113l77 131l181 -100v217h165l3 -217l182 100l76 -131l-187 -113l187 -106l-76 -140l-182 109l-3 -217h-163l-2 217l-181 -109z" />
<glyph unicode="+" horiz-adv-x="1644" d="M250 502v192h477v494h195v-494h475v-192h-475v-498h-195v498h-477z" />
<glyph unicode="," horiz-adv-x="389" d="M82 8v242h227v-148q2 -16 2 -34q0 -55 -18 -107q-29 -78 -98 -141v188h-113z" />
<glyph unicode="-" horiz-adv-x="765" d="M53 418v241h658v-241h-658z" />
<glyph unicode="." horiz-adv-x="389" d="M82 4v242h227v-242h-227z" />
<glyph unicode="/" horiz-adv-x="829" d="M-2 -180l694 1630h139l-700 -1630h-133z" />
<glyph unicode="0" horiz-adv-x="1531" d="M57 717q0 406 205 583q172 150 504 150q190 0 324 -47q178 -63 270 -209q113 -176 113 -477q0 -424 -220 -600q-168 -135 -487 -135t-490 137q-219 178 -219 598zM365 715q0 -248 98 -376t303 -128q188 0 287 108q111 123 110 398v33q0 227 -103.5 349t-293.5 122 q-188 0 -285 -103q-116 -122 -116 -403z" />
<glyph unicode="1" horiz-adv-x="663" d="M203 4v1430h303v-1430h-303z" />
<glyph unicode="2" horiz-adv-x="1531" d="M147 4v430q0 219 107 314q117 104 401 104h242q72 0 119 43t47 117q0 92 -47 133q-55 47 -191 47h-678v242h811q205 0 314 -93q119 -100 119 -309q0 -207 -97 -313q-104 -117 -327 -117h-269q-121 0 -179 -50t-58 -218v-88h923v-242h-1237z" />
<glyph unicode="3" horiz-adv-x="1531" d="M207 4v238h579q115 0 175.5 41t60.5 139q0 92 -63.5 136t-172.5 44h-467v238h459q115 0 170 37q66 43 66 139q0 180 -236 180h-571v238h676q274 0 379 -109q88 -92 88 -274q0 -94 -48.5 -177t-142.5 -155q74 -39 123 -105q70 -94 70 -229q0 -201 -131 -297 q-113 -84 -308 -84h-706z" />
<glyph unicode="4" horiz-adv-x="1570" d="M63 264v277l832 893h377l2 -928h188v-242h-188v-260h-299v260h-912zM399 508h574v622z" />
<glyph unicode="5" horiz-adv-x="1531" d="M150 4v238h688q106 0 155 34q61 43 62 150q0 98 -55.5 141t-161.5 43h-688v824h1175v-240h-864v-344h497q190 0 314.5 -111.5t124.5 -312.5q0 -422 -494 -422h-753z" />
<glyph unicode="6" horiz-adv-x="1531" d="M102 748q0 307 144 473q184 213 610 213h506v-238h-514q-211 0 -289 -61q-96 -76 -119 -310h510q236 0 357 -88q133 -96 133 -297q0 -227 -142 -338q-152 -119 -477 -118q-205 0 -329 43q-178 61 -275 215q-115 184 -115 506zM440 588q0 -158 58 -240q92 -131 327 -131 q156 0 224.5 50t68.5 151q0 70 -43 117q-49 53 -141 53h-494z" />
<glyph unicode="7" horiz-adv-x="1531" d="M137 1194v240h1252v-240l-850 -1190h-373l878 1190h-907z" />
<glyph unicode="8" horiz-adv-x="1531" d="M92 377q0 147 58 227q51 70 153 115q-98 80 -141 151q-49 82 -49 185q0 150 57 229q106 150 405 150h386q244 0 352 -86t108 -277q0 -127 -41 -201.5t-145 -150.5q109 -51 158 -128t49 -208q0 -162 -88 -258q-111 -121 -353 -121h-469q-227 0 -337 105q-103 96 -103 268z M424 422q0 -180 235 -180h222q231 0 231 180t-231 180h-222q-109 0 -163 -35q-72 -45 -72 -145zM426 1016q0 -92 62.5 -134t173.5 -42h219q109 0 163 34q68 43 68 142q0 94 -60.5 137t-170.5 43h-219q-236 0 -236 -180z" />
<glyph unicode="9" horiz-adv-x="1531" d="M102 1036q0 223 193 330q158 86 420 86q182 0 303 -35q186 -53 289 -190q129 -172 129 -469q0 -416 -197 -594q-176 -160 -557 -160h-502v238h508q225 0 326 114q80 92 80 254h-504q-244 0 -359 88q-129 100 -129 338zM424 1020q0 -76 45 -124t137 -48h488q0 166 -66 250 q-92 117 -323 116q-127 0 -204 -49t-77 -145z" />
<glyph unicode=":" horiz-adv-x="421" d="M96 4v242h223v-242h-223zM96 541v241h223v-241h-223z" />
<glyph unicode=";" horiz-adv-x="421" d="M96 4v242h223v-152q0 -98 -21.5 -153.5t-92.5 -120.5v184h-109zM96 541v241h223v-241h-223z" />
<glyph unicode="&#x3c;" horiz-adv-x="1290" d="M137 504v188l1004 465v-199l-744 -358l744 -367v-198z" />
<glyph unicode="=" horiz-adv-x="1437" d="M125 295v184h1149v-184h-1149zM125 715v182h1149v-182h-1149z" />
<glyph unicode="&#x3e;" horiz-adv-x="1290" d="M137 35v198l748 367l-748 358v199l1004 -465v-188z" />
<glyph unicode="?" horiz-adv-x="1370" d="M53 1192v242h793q197 0 284 -48q176 -94 177 -385q0 -178 -105 -286q-113 -117 -317 -117h-252q-125 0 -180.5 -44t-55.5 -165v-29h-315v74q0 201 104 301q119 113 383 113h213q199 0 199 184q0 90 -56.5 125t-179.5 35h-692zM86 4v246h311v-246h-311z" />
<glyph unicode="@" horiz-adv-x="1581" d="M72 406q0 317 223 532t563 215q223 0 406 -113q246 -152 245 -440q0 -193 -106 -342q-125 -174 -336 -174q-68 0 -109 22q-57 33 -57 109q-82 -127 -221 -127q-254 0 -254 260q0 139 68 260q98 176 301 176q119 0 182 -98l45 78h129l-117 -498q-2 -25 15.5 -42t48.5 -17 q86 0 168 90q106 117 106 299q0 209 -151 328q-141 111 -361 110q-313 0 -502 -225q-154 -184 -153 -403q0 -281 211 -420q160 -106 375 -107q137 0 250.5 35t224.5 115l59 -88q-156 -109 -303 -150q-104 -29 -231 -29q-291 0 -496 166q-223 181 -223 478zM586 348 q0 -154 123 -153q72 0 123 53t69 129l41 170q10 41 -33 88t-98 47q-113 0 -176 -123q-49 -96 -49 -211z" />
<glyph unicode="A" horiz-adv-x="1429" d="M-39 4l594 1430h309l604 -1430h-321l-133 344h-623l-125 -344h-305zM487 598h431l-218 565z" />
<glyph unicode="B" horiz-adv-x="1495" d="M150 4v1430h727q248 0 360 -64q160 -90 160 -328q0 -113 -49.5 -185.5t-165.5 -137.5q117 -55 168 -127t51 -191q0 -188 -78 -276q-106 -121 -395 -121h-778zM442 252h437q96 0 147 35q59 41 59 135q0 174 -200 174h-443v-344zM442 846h432q98 0 148 33q59 41 59 133 q0 170 -200 170h-439v-336z" />
<glyph unicode="C" horiz-adv-x="1292" d="M57 692q0 344 140 527q164 215 528 215h492v-238h-488q-205 0 -289 -147q-63 -113 -63 -330v-72q0 -172 49 -258q82 -143 303 -143h488v-242h-500q-307 0 -475 160q-185 174 -185 528z" />
<glyph unicode="D" horiz-adv-x="1523" d="M150 4v1430h645q385 0 544 -211q119 -158 119 -445q0 -469 -180 -641q-139 -133 -475 -133h-653zM442 248l344 2q207 0 282 94t75 375q0 307 -109 407q-72 66 -243 66l-349 -2v-942z" />
<glyph unicode="E" horiz-adv-x="1337" d="M57 692q0 414 179 588q156 154 489 154h492v-242h-488q-162 0 -247 -85t-85 -259h820v-244h-826q0 -199 94 -285q80 -74 244 -73h488v-242h-500q-307 0 -475 160q-185 174 -185 528z" />
<glyph unicode="F" horiz-adv-x="1341" d="M139 4v655q0 272 23 379q41 193 176 285q164 111 496 111h450v-242h-477q-197 0 -289 -100q-84 -90 -84 -258h850v-240h-850v-590h-295z" />
<glyph unicode="G" horiz-adv-x="1466" d="M57 692q0 332 125 510q162 231 543 232h637v-242h-637q-178 0 -259 -119t-81 -344t70 -338q82 -133 270 -133h338v342h-395v248h694v-844h-657q-139 0 -222 21q-178 45 -284 176q-142 176 -142 491z" />
<glyph unicode="H" horiz-adv-x="1437" d="M150 4v1430h292v-580h553v580h289v-1430h-289v600h-553v-600h-292z" />
<glyph unicode="I" horiz-adv-x="610" d="M150 4v1430h305v-1430h-305z" />
<glyph unicode="J" horiz-adv-x="1105" d="M-4 4v229h348q193 0 260.5 91.5t67.5 322.5v787h301v-852q0 -338 -142 -463q-129 -115 -450 -115h-385z" />
<glyph unicode="K" horiz-adv-x="1329" d="M150 4v1430h292v-689l562 689h352l-568 -701l572 -729h-375l-543 713v-713h-292z" />
<glyph unicode="L" horiz-adv-x="1101" d="M117 582v852h289v-787v-78q0 -156 47 -227q72 -109 280 -109h352v-229h-423q-301 0 -429 146q-116 133 -116 432z" />
<glyph unicode="M" horiz-adv-x="1892" d="M150 4v1430h434l362 -1112l367 1112h428v-1430h-262v1114l-369 -1114h-311l-381 1124v-1124h-268z" />
<glyph unicode="N" horiz-adv-x="1536" d="M150 4v1430h374l586 -1033v1033h281v-1430h-338l-615 1086v-1086h-288z" />
<glyph unicode="O" horiz-adv-x="1527" d="M57 723q0 307 111 483q92 145 270 209q133 47 324 47q303 0 471 -116q141 -98 199 -285q41 -135 41 -342q0 -406 -218 -592q-178 -154 -489 -154q-162 0 -281 37q-186 57 -292 205q-136 186 -136 508zM373 723q0 -236 57 -344q88 -168 334 -168q215 0 309 139 q82 121 82 367q0 281 -113 403q-94 102 -278 103q-182 0 -286.5 -126t-104.5 -374z" />
<glyph unicode="P" horiz-adv-x="1466" d="M150 4v1430h645q334 0 472 -111t138 -354q0 -283 -213 -396q-131 -70 -328 -69h-33q-14 0 -24 2h-365v-502h-292zM442 756h363q276 0 276 213q0 121 -70.5 167t-222.5 46h-346v-426z" />
<glyph unicode="Q" horiz-adv-x="1527" d="M57 725q0 313 136 498q176 238 565 237q193 0 327 -49q174 -63 271 -215q115 -180 114 -477q0 -143 -24 -254q-31 -133 -100 -252l210 -209h-352l-45 49q-76 -27 -127 -39q-160 -39 -317 -39q-274 0 -434 127q-131 104 -185 293q-39 140 -39 330zM375 715 q0 -231 103.5 -368.5t285.5 -137.5q223 0 315 149q74 119 74 357q0 279 -115 403q-96 106 -274 107q-178 0 -275 -109q-114 -127 -114 -401z" />
<glyph unicode="R" horiz-adv-x="1482" d="M150 4v1430h731q246 0 362 -93q131 -102 131 -337q0 -160 -63 -256q-72 -109 -219 -144l344 -600h-324l-315 561h-357v-561h-290zM442 813h367q143 0 192 23q80 37 80 163q0 104 -65.5 143.5t-208.5 39.5h-365v-369z" />
<glyph unicode="S" horiz-adv-x="1495" d="M70 1004q0 223 119.5 326.5t373.5 103.5h780v-250h-733q-238 0 -237 -193q0 -80 53 -120t141 -40h394q209 0 303 -55q150 -88 149 -346q0 -186 -80 -285q-115 -141 -413 -141h-791v250h743q117 0 170 31q66 39 66 131q0 94 -52 134t-165 40h-350q-233 0 -348 94 q-123 101 -123 320z" />
<glyph unicode="T" horiz-adv-x="1224" d="M4 1186v244h1217v-244h-457v-1182h-307v1182h-453z" />
<glyph unicode="U" horiz-adv-x="1517" d="M147 522v912h289v-861q-2 -41 -2 -67q0 -125 49 -193q76 -104 279 -104q180 0 249.5 80t69.5 284v861h289v-869v-71q0 -211 -88 -324q-143 -182 -520 -182q-420 0 -551 207q-64 100 -64 327z" />
<glyph unicode="V" horiz-adv-x="1386" d="M-55 1434h325l432 -1076l441 1076h307l-588 -1430h-303z" />
<glyph unicode="W" horiz-adv-x="2185" d="M-6 1434h309l326 -1102h8l276 1102h349l323 -1117l305 1117h297l-434 -1430h-360l-299 1065h-9l-266 -1065h-356z" />
<glyph unicode="X" horiz-adv-x="1277" d="M-23 4l492 715l-475 715h342l293 -455l291 455h337l-452 -697l485 -733h-348l-301 498l-317 -498h-347z" />
<glyph unicode="Y" horiz-adv-x="1224" d="M-72 1434h328l350 -549l355 549h337l-540 -799v-631h-295l-2 631z" />
<glyph unicode="Z" horiz-adv-x="1452" d="M117 4v256l807 922h-807v252h1188v-252l-797 -932h797v-246h-1188z" />
<glyph unicode="[" horiz-adv-x="688" d="M154 -250v1684h479v-222h-246v-1247h246v-215h-479z" />
<glyph unicode="\" horiz-adv-x="829" d="M-2 1450h137l696 -1630h-135z" />
<glyph unicode="]" horiz-adv-x="688" d="M53 -35h246v1247h-246v222h477v-1684h-477v215z" />
<glyph unicode="^" horiz-adv-x="1566" d="M172 883l457 538h243l459 -538h-219l-360 356l-363 -356h-217z" />
<glyph unicode="_" d="M4 -205h991v-143h-991v143z" />
<glyph unicode="`" horiz-adv-x="681" d="M131 1454h275l184 -270h-129z" />
<glyph unicode="a" horiz-adv-x="1255" d="M74 311q0 174 98 249t313 75h365q0 119 -51 162t-199 43h-457v211h559q168 0 256 -47q168 -90 168 -345v-655h-733q-152 0 -235.5 82t-83.5 225zM356 319q0 -59 39 -85.5t111 -26.5h346v227h-326q-84 0 -118 -16q-52 -25 -52 -99z" />
<glyph unicode="b" horiz-adv-x="1208" d="M125 4v1430h268v-383h240q252 0 387 -131.5t135 -380.5q0 -195 -94 -336q-133 -199 -412 -199h-524zM393 217h168q172 0 248 90q63 76 63 217q0 145 -57 215q-72 88 -252 88h-170v-610z" />
<glyph unicode="c" horiz-adv-x="1042" d="M61 524q0 317 195 443q129 84 350 84h367v-224h-348q-162 0 -226 -84q-55 -74 -55 -219q0 -176 90 -248q70 -55 219 -55h320v-217h-367q-233 0 -375 113q-170 135 -170 407z" />
<glyph unicode="d" horiz-adv-x="1204" d="M49 522q0 264 148 404q135 127 362 127h250l2 381h270v-1430h-526q-195 0 -330 105q-176 137 -176 413zM332 496q0 -137 53 -197q72 -80 264 -80h160v606h-147q-188 0 -259 -70.5t-71 -258.5z" />
<glyph unicode="e" horiz-adv-x="1042" d="M61 528q0 311 191 439q125 84 332 84h397v-211h-360q-141 0 -198.5 -44t-57.5 -163h616v-215h-621q0 -115 52.5 -160t205.5 -45h363v-209h-397q-256 0 -389.5 141t-133.5 383z" />
<glyph unicode="f" horiz-adv-x="776" d="M20 848v203h195v63q0 18 -1 34.5t-1 31.5q0 115 41 168q66 86 244 86h260v-193h-111q-86 0 -120.5 -30.5t-34.5 -92.5v-67h266v-205h-264v-842h-279v844h-195z" />
<glyph unicode="g" horiz-adv-x="1204" d="M53 524q0 262 140.5 394.5t402.5 132.5h498v-1010q0 -207 -92.5 -311.5t-299.5 -104.5h-536v207h487q168 0 168 170h-254q-197 0 -323 88q-191 131 -191 434zM334 516q0 -150 59 -219q72 -84 250 -84h178v621h-147q-195 0 -273 -86q-67 -74 -67 -232z" />
<glyph unicode="h" horiz-adv-x="1189" d="M125 4v1430h262v-381h240q197 0 299 -66q143 -92 143 -319v-664h-270v633q0 100 -40 142t-151 42h-221v-817h-262z" />
<glyph unicode="i" horiz-adv-x="526" d="M125 4v1047h276v-1047h-276zM125 1180v254h276v-254h-276z" />
<glyph unicode="j" horiz-adv-x="526" d="M-131 -160h115q82 0 114 58q27 47 27 163v990h276v-1002q0 -215 -95 -320.5t-302 -105.5l-135 2v215zM125 1180v254h276v-254h-276z" />
<glyph unicode="k" horiz-adv-x="1189" d="M131 4v1430h268v-887l447 504h340l-477 -510l477 -537h-363l-424 510v-510h-268z" />
<glyph unicode="l" horiz-adv-x="518" d="M121 4v1430h276v-1430h-276z" />
<glyph unicode="m" horiz-adv-x="1734" d="M125 4v1047h1049q207 0 307 -72q123 -88 123 -311v-664h-267v629q0 111 -37.5 150.5t-144.5 39.5h-156v-819h-280v817h-328v-817h-266z" />
<glyph unicode="n" horiz-adv-x="1185" d="M125 4v1047h512q225 0 319 -72q113 -86 113 -311v-664h-270v629v31q0 74 -25 104q-43 53 -162 53h-221v-817h-266z" />
<glyph unicode="o" horiz-adv-x="1204" d="M53 528q0 307 199 445q141 98 350 98q201 0 346 -102q203 -143 203 -441q0 -250 -148.5 -398t-400.5 -148q-250 0 -399.5 145t-149.5 401zM332 524q0 -125 69 -217q78 -104 199 -104q125 0 203 100q70 90 69 221q0 139 -67 228q-74 96 -201 96q-100 0 -178 -76 q-94 -90 -94 -248z" />
<glyph unicode="p" horiz-adv-x="1208" d="M125 -375v1426h524q225 0 361 -131q145 -141 145 -404q0 -250 -131 -381t-391 -131h-244v-379h-264zM391 221h105q227 0 309 84q68 70 67 230q0 147 -49 210q-68 86 -256 86h-176v-610z" />
<glyph unicode="q" horiz-adv-x="1204" d="M51 512q0 215 117 365q135 174 387 174h526v-1426h-268v379h-238q-223 0 -362 115q-162 133 -162 393zM332 532q0 -141 59 -217q74 -94 250 -94h172v610h-172q-176 0 -248 -79q-61 -70 -61 -220z" />
<glyph unicode="r" horiz-adv-x="931" d="M125 4v1047h459q160 0 217 -56q68 -66 67 -247v-130h-254v80q0 98 -19.5 127t-76.5 29q-8 2 -25 2h-28h-41q-16 0 -33 -2v-850h-266z" />
<glyph unicode="s" horiz-adv-x="1173" d="M90 719q0 332 363 332h585v-211h-528q-145 0 -145 -90v-19q8 -92 133 -92h252q154 0 235 -53q109 -72 109 -238q0 -158 -75 -251t-208 -93h-702v209h575q150 0 150 111q0 106 -150 106h-240q-35 -2 -57 -2q-121 0 -188 43q-109 70 -109 248z" />
<glyph unicode="t" horiz-adv-x="819" d="M20 848v203h191v383h268v-383h293v-203h-293v-430q0 -88 28 -145.5t91 -57.5h174v-211h-246q-150 0 -232.5 85t-82.5 239v520h-191z" />
<glyph unicode="u" horiz-adv-x="1189" d="M117 385v666h264v-645q0 -88 35 -130q43 -51 147 -51h228v826h266v-1047h-514q-219 0 -316 78q-110 88 -110 303z" />
<glyph unicode="v" horiz-adv-x="1204" d="M10 1051h295l295 -760l307 760h287l-461 -1047h-284z" />
<glyph unicode="w" horiz-adv-x="1726" d="M-23 1051h277l231 -750l234 750h285l237 -750l229 750h277l-352 -1047h-305l-232 731l-225 -731h-293z" />
<glyph unicode="x" horiz-adv-x="1093" d="M10 1051h309l224 -320l233 320h311l-382 -531l374 -516h-313l-223 301l-219 -301h-310l377 524z" />
<glyph unicode="y" horiz-adv-x="1189" d="M117 401v650h260v-625q0 -106 22 -141q39 -59 164 -60h228v826h266v-1022q0 -195 -90 -295q-96 -109 -295 -109h-537v207h486q170 0 170 172h-248q-223 0 -318 78q-108 90 -108 319z" />
<glyph unicode="z" horiz-adv-x="1155" d="M92 4v221l615 600h-615v226h969v-228l-615 -598h615v-221h-969z" />
<glyph unicode="{" d="M154 418v200h18q133 0 185.5 50.5t52.5 199.5v242q0 176 61 246q74 84 285 84h94v-199h-88q-63 0 -94 -51t-31 -148v-233q0 -139 -40 -197.5t-169 -89.5q117 -45 135 -57q74 -51 74 -240v-233q0 -88 26.5 -141.5t81.5 -53.5q2 -2 25 -2h80v-192l-98 -2q-211 0 -281 75 q-61 68 -61 254v242q0 141 -48.5 193.5t-189.5 52.5h-18z" />
<glyph unicode="|" d="M397 -465v1989h195v-1989h-195z" />
<glyph unicode="}" d="M154 -201h88q63 0 94 51.5t31 147.5v233q0 139 39.5 197.5t168.5 89.5q-117 45 -135 57q-74 51 -73 240v234q0 88 -27 141t-82 53q-2 2 -25 2h-79v193l98 2q211 0 280 -76q61 -68 62 -254v-242q0 -141 48 -193t189 -52h19v-201h-19q-133 0 -185 -50t-52 -200v-242 q0 -176 -62 -245q-74 -84 -284 -84h-94v198z" />
<glyph unicode="~" horiz-adv-x="1280" d="M59 991q51 166 125 232q82 74 232 73q96 0 229 -30.5t201 -30.5q61 0 101 25.5t69 78.5h162q-94 -309 -367 -309q-82 0 -237.5 28.5t-188.5 28.5q-117 0 -166 -96h-160z" />
<glyph unicode="&#xa1;" horiz-adv-x="618" d="M162 4v1057h289v-1057h-289zM162 1184v250h293v-250h-293z" />
<glyph unicode="&#xa2;" horiz-adv-x="811" d="M33 729q0 242 141 350q106 82 283 82v125h108v-125h209v-178h-209v-506h209v-178h-209v-123h-108v123q-61 0 -109 10q-127 27 -205 107q-110 112 -110 313zM258 729q0 -104 41 -162q49 -68 158 -90v506q-104 -12 -151.5 -71.5t-47.5 -182.5z" />
<glyph unicode="&#xa3;" horiz-adv-x="1347" d="M57 4v238h254v383h-254v200h256v244q0 178 111 268q119 96 364 97h386v-242h-336q-139 0 -193 -53q-43 -43 -43 -144v-170h346v-200h-344v-381h688v-240h-1235z" />
<glyph unicode="&#xa4;" horiz-adv-x="1196" d="M70 430l194 199q-29 45 -45 88q-27 72 -26 149q0 127 71 236l-194 198l96 99l199 -193q111 70 235 70q123 0 238 -70l196 193l96 -99l-192 -198q68 -109 68 -238q0 -125 -68 -235l192 -199l-96 -102l-196 198q-106 -72 -238 -71q-131 0 -235 71l-199 -198zM332 864 q0 -106 80 -188t190 -82q102 0 186 80t84 190q0 113 -77.5 193t-192.5 80q-104 0 -187 -79t-83 -194z" />
<glyph unicode="&#xa5;" horiz-adv-x="1224" d="M-72 1434h328l350 -549l355 549h337l-327 -488h241v-115h-319l-92 -131h411v-116h-452v-580h-299v580h-441v116h402l-86 131h-316v115h236z" />
<glyph unicode="&#xa6;" d="M397 -336v729h195v-729h-195zM397 659v736h195v-736h-195z" />
<glyph unicode="&#xa7;" d="M31 575q0 74 22 123q31 68 107 103q-125 90 -125 284q0 145 84 238q102 111 303 111h450v-230h-380q-88 0 -133.5 -27.5t-45.5 -99.5q0 -113 136 -112h108q236 0 328 -91q68 -68 67 -196q0 -137 -116 -227q70 -47 98 -142q18 -61 18 -145q0 -162 -95 -255t-290 -93h-467 v225h396q178 0 178 125q0 51 -39 84t-94 33h-133q-205 0 -297 84q-80 71 -80 208zM295 606q0 -61 78 -84q51 -14 151 -14q176 0 176 143q0 49 -51 70.5t-121 21.5q-12 2 -36 2q-80 0 -138.5 -42t-58.5 -97z" />
<glyph unicode="&#xa8;" d="M209 1196v246h227v-246h-227zM551 1196v246h227v-246h-227z" />
<glyph unicode="&#xa9;" horiz-adv-x="1644" d="M113 715q0 113 57 260q76 195 215 313q180 154 438 154q313 0 520 -225q193 -211 193 -502q0 -283 -199 -496q-209 -223 -514 -223q-319 0 -526 244q-184 217 -184 475zM219 719q0 -246 175 -427t433 -181q238 0 414 163q188 176 189 445q0 236 -175 418 q-182 190 -428 190q-236 0 -417 -174q-191 -182 -191 -434zM440 725q0 170 103 291q113 133 291 133q131 0 223 -71.5t110 -196.5h-174q-8 63 -56 105t-106 42q-94 0 -148 -81t-54 -228q0 -129 43 -207q51 -90 147 -90q156 0 182 156h177q-14 -123 -95 -201 q-94 -90 -258 -90q-182 0 -283.5 118.5t-101.5 319.5z" />
<glyph unicode="&#xaa;" horiz-adv-x="944" d="M57 938q0 94 60 145q72 61 248 62h274q0 82 -44 113.5t-146 31.5h-340v144h421q143 0 220 -54q96 -68 96 -221v-454h-553q-111 0 -173.5 60t-62.5 173zM266 922q0 -43 32 -60.5t79 -17.5h262v160h-246q-68 0 -97.5 -15.5t-29.5 -66.5z" />
<glyph unicode="&#xab;" horiz-adv-x="1247" d="M53 528l336 344h287l-342 -344l334 -344h-295zM526 528l336 344h285l-346 -344l334 -344h-289z" />
<glyph unicode="&#xac;" horiz-adv-x="1228" d="M66 4v1266h1075v-1266h-99q-39 164 -176 295q-86 78 -170 156q-96 86 -190 172q-117 119 -117 217q0 113 51 168q41 43 103 43q156 0 297 -232q121 -199 137 -364h37v698h-39l-182 -141q-106 82 -123 90q-68 37 -158 37q-203 0 -309 -256q-86 -209 -86 -504 q0 -68 12 -129q25 -123 92 -250h-155z" />
<glyph unicode="&#xad;" horiz-adv-x="765" d="M53 418v241h658v-241h-658z" />
<glyph unicode="&#xae;" horiz-adv-x="1644" d="M113 715q0 358 247 561q203 166 463 166q123 0 267 -58q188 -76 301 -217q145 -184 145 -452q0 -279 -199 -492q-211 -227 -514 -227q-299 0 -504.5 216t-205.5 503zM219 719q0 -276 209 -455q180 -154 383 -153q252 0 435.5 179t183.5 419q0 262 -176.5 440t-426.5 178 q-244 0 -426 -178t-182 -430zM530 332v796h308q141 0 225 -41q113 -55 113 -180q0 -160 -177 -217l177 -358h-207l-152 327h-104v-327h-183zM715 774h76q92 0 135 23q55 29 55 100q0 66 -51 92.5t-139 26.5h-76v-242z" />
<glyph unicode="&#xaf;" d="M4 1331v193h981v-193h-981z" />
<glyph unicode="&#xb0;" horiz-adv-x="694" d="M109 1210q0 102 66.5 175t164.5 73q102 0 175 -66.5t73 -164.5q0 -102 -66.5 -175t-165.5 -73q-102 0 -174.5 66.5t-72.5 164.5zM195 1210q0 -61 46 -103t111 -42q61 0 103.5 46t42.5 112q0 61 -46 103t-112 42q-61 0 -103 -46t-42 -112z" />
<glyph unicode="&#xb1;" horiz-adv-x="1644" d="M248 4v184h1149v-184h-1149zM248 686v188h479v318h195v-318h475v-188h-475v-317h-195v317h-479z" />
<glyph unicode="&#xb2;" horiz-adv-x="942" d="M31 578v253q0 131 72.5 189.5t263.5 58.5h159q49 0 80 24.5t31 70.5q0 53 -35 79.5t-123 26.5h-448v141h536q137 0 212 -56t75 -181q0 -119 -67.5 -185.5t-213.5 -66.5h-178q-102 0 -135 -49q-23 -33 -22 -111v-51h612v-143h-819z" />
<glyph unicode="&#xb3;" horiz-adv-x="839" d="M16 584v141h381q76 0 116 24.5t40 81.5q0 55 -41 81t-115 26h-307v139h301q78 0 117 22.5t39 82.5q0 106 -156 106h-375v139h445q139 0 209 -36q98 -53 98 -189q0 -57 -31.5 -105t-93.5 -91q47 -20 80 -62q45 -57 45 -135q0 -119 -86 -176q-74 -49 -201 -49h-465z" />
<glyph unicode="&#xb4;" horiz-adv-x="681" d="M102 1202l185 271h274l-332 -271h-127z" />
<glyph unicode="&#xb5;" horiz-adv-x="1204" d="M-53 -422l256 1483h268l-74 -422q-6 -31 -13 -98.5t-7 -94.5q0 -109 29 -170q37 -80 120 -79q113 0 181 116q51 90 73 248l90 500h269l-187 -1057l-252 2l19 109l-8 2q-35 -72 -78 -103q-53 -39 -133 -39h-11q-66 0 -110 31q-33 23 -80 82l-88 -510h-264z" />
<glyph unicode="&#xb6;" d="M43 1106q0 168 115 256q102 80 260 80h526v-105h-104v-1333h-142v1333h-159v-1333h-144v764q-180 20 -266 104t-86 234z" />
<glyph unicode="&#xb7;" horiz-adv-x="432" d="M135 653q0 35 22.5 57.5t55.5 22.5t56.5 -23.5t23.5 -56.5t-23.5 -56.5t-56.5 -23.5t-55.5 22.5t-22.5 57.5z" />
<glyph unicode="&#xb8;" d="M274 -256q49 -12 76 -16q82 -16 117 -17q39 0 57 8q33 14 33 54q0 49 -113 49h-26v170h84v-76q193 0 192 -143q0 -72 -46 -115t-152 -43q-47 0 -93.5 6t-128.5 29v94z" />
<glyph unicode="&#xb9;" horiz-adv-x="344" d="M74 573v852h196v-852h-196z" />
<glyph unicode="&#xba;" horiz-adv-x="903" d="M45 1010q0 229 113 338q102 98 295 98q170 0 282 -90q127 -102 127 -287q0 -162 -96 -264q-109 -117 -313 -117q-178 0 -293 94.5t-115 227.5zM248 1065q0 -100 60.5 -162.5t142.5 -62.5q94 0 150 62.5t56 164.5q0 96 -56 162.5t-144 66.5q-94 0 -151.5 -59t-57.5 -172z " />
<glyph unicode="&#xbb;" horiz-adv-x="1247" d="M57 184l346 344l-333 344h290l320 -344l-336 -344h-287zM530 184l344 344l-331 344h291l317 -344l-336 -344h-285z" />
<glyph unicode="&#xbc;" horiz-adv-x="1714" d="M74 573v852h196v-852h-196zM274 4l553 1426h136l-547 -1426h-142zM709 135v158l510 508h231l2 -527h115v-139h-115v-147h-184v147h-559zM915 274h351v355z" />
<glyph unicode="&#xbd;" horiz-adv-x="1701" d="M74 573v852h196v-852h-196zM287 -8l553 1425h135l-547 -1425h-141zM817 -6v254q0 131 73 189.5t263 58.5h160q49 0 79.5 24.5t30.5 69.5q0 53 -34.5 79.5t-122.5 26.5h-449v142h537q137 0 211.5 -56.5t74.5 -181.5q0 -119 -67.5 -185.5t-212.5 -66.5h-178 q-102 0 -135 -49q-23 -33 -23 -111v-51h612v-143h-819z" />
<glyph unicode="&#xbe;" horiz-adv-x="2131" d="M16 584v141h381q76 0 116 24.5t40 81.5q0 55 -41 81t-115 26h-307v139h301q78 0 117 22.5t39 82.5q0 106 -156 106h-375v139h445q139 0 209 -36q98 -53 98 -189q0 -57 -31.5 -105t-93.5 -91q47 -20 80 -62q45 -57 45 -135q0 -119 -86 -176q-74 -49 -201 -49h-465zM606 -2 l553 1425h135l-546 -1425h-142zM1169 160v174l510 565h232l2 -588h115v-151h-115v-166h-184v166h-560zM1376 313h350v396z" />
<glyph unicode="&#xbf;" horiz-adv-x="1370" d="M53 436q0 178 105 287q113 117 317 117h252q125 0 176 41q59 47 60 168v28h315v-73q0 -201 -104 -302q-119 -113 -383 -112h-213q-199 0 -199 -184q0 -90 56.5 -125t178.5 -35h693v-242h-793q-197 0 -285 47q-176 94 -176 385zM963 1188v246h311v-246h-311z" />
<glyph unicode="&#xc0;" horiz-adv-x="1429" d="M-39 4l594 1430h309l604 -1430h-321l-133 344h-623l-125 -344h-305zM487 598h431l-218 565zM303 1792h275l184 -270h-129z" />
<glyph unicode="&#xc1;" horiz-adv-x="1429" d="M-39 4l594 1430h309l604 -1430h-321l-133 344h-623l-125 -344h-305zM487 598h431l-218 565zM677 1536l185 271h274l-332 -271h-127z" />
<glyph unicode="&#xc2;" horiz-adv-x="1429" d="M-39 4l594 1430h309l604 -1430h-321l-133 344h-623l-125 -344h-305zM487 598h431l-218 565zM412 1510l180 270h233l183 -270h-129l-170 141l-172 -141h-125z" />
<glyph unicode="&#xc3;" horiz-adv-x="1429" d="M-39 4l594 1430h309l604 -1430h-321l-133 344h-623l-125 -344h-305zM487 598h431l-218 565zM398 1511q27 113 69.5 164t122.5 51q55 0 129 -21.5t104 -21.5q63 0 93 74h88q-51 -219 -199 -219q-39 0 -96 12q-133 29 -135 29q-63 0 -90 -68h-86z" />
<glyph unicode="&#xc4;" horiz-adv-x="1429" d="M-39 4l594 1430h309l604 -1430h-321l-133 344h-623l-125 -344h-305zM487 598h431l-218 565zM432 1515v246h227v-246h-227zM774 1515v246h227v-246h-227z" />
<glyph unicode="&#xc5;" horiz-adv-x="1429" d="M-39 4l594 1430h309l604 -1430h-321l-133 344h-623l-125 -344h-305zM487 598h431l-218 565zM520 1692q0 80 53.5 135t132.5 55q80 0 135.5 -53t55.5 -133t-53.5 -135t-133.5 -55t-135 53t-55 133zM620 1694q0 -37 29 -61.5t66 -24.5t61.5 28.5t24.5 65.5t-29 61.5 t-66 24.5t-61.5 -28.5t-24.5 -65.5z" />
<glyph unicode="&#xc6;" horiz-adv-x="2207" d="M-35 4l594 1430h318l131 -355q92 193 221 271q139 84 389 84h471v-242h-485q-338 0 -338 -342l823 2v-246l-823 -2q0 -168 59 -250q78 -109 279 -108h485v-242h-479q-260 0 -361 55q-113 61 -231 289h-623l-125 -344h-305zM496 598h452l-200 555h-48z" />
<glyph unicode="&#xc7;" horiz-adv-x="1292" d="M57 692q0 344 140 527q164 215 528 215h492v-238h-488q-205 0 -289 -147q-63 -113 -63 -330v-72q0 -172 49 -258q82 -143 303 -143h488v-242h-488v-45q193 0 193 -143q0 -72 -46.5 -115t-152.5 -43q-47 0 -93 6t-128 29v94q49 -12 76 -16q82 -16 116 -17q39 0 58 8 q33 14 32 54q0 49 -112 49h-27v141q-270 0 -424 170q-164 180 -164 516z" />
<glyph unicode="&#xc8;" horiz-adv-x="1337" d="M57 692q0 414 179 588q156 154 489 154h492v-242h-488q-162 0 -247 -85t-85 -259h820v-244h-826q0 -199 94 -285q80 -74 244 -73h488v-242h-500q-307 0 -475 160q-185 174 -185 528zM469 1784h275l184 -270h-129z" />
<glyph unicode="&#xc9;" horiz-adv-x="1337" d="M57 692q0 414 179 588q156 154 489 154h492v-242h-488q-162 0 -247 -85t-85 -259h820v-244h-826q0 -199 94 -285q80 -74 244 -73h488v-242h-500q-307 0 -475 160q-185 174 -185 528zM706 1503l185 271h274l-332 -271h-127z" />
<glyph unicode="&#xca;" horiz-adv-x="1337" d="M57 692q0 414 179 588q156 154 489 154h492v-242h-488q-162 0 -247 -85t-85 -259h820v-244h-826q0 -199 94 -285q80 -74 244 -73h488v-242h-500q-307 0 -475 160q-185 174 -185 528zM478 1503l180 270h233l183 -270h-129l-170 141l-172 -141h-125z" />
<glyph unicode="&#xcb;" horiz-adv-x="1337" d="M57 692q0 414 179 588q156 154 489 154h492v-242h-488q-162 0 -247 -85t-85 -259h820v-244h-826q0 -199 94 -285q80 -74 244 -73h488v-242h-500q-307 0 -475 160q-185 174 -185 528zM469 1520v246h227v-246h-227zM811 1520v246h227v-246h-227z" />
<glyph unicode="&#xcc;" horiz-adv-x="610" d="M150 4v1430h305v-1430h-305zM-37 1776h275l184 -270h-129z" />
<glyph unicode="&#xcd;" horiz-adv-x="610" d="M150 4v1430h305v-1430h-305zM159 1513l185 271h274l-332 -271h-127z" />
<glyph unicode="&#xce;" horiz-adv-x="610" d="M150 4v1430h305v-1430h-305zM2 1508l180 270h233l183 -270h-129l-170 141l-172 -141h-125z" />
<glyph unicode="&#xcf;" horiz-adv-x="610" d="M150 4v1430h305v-1430h-305zM10 1520v246h227v-246h-227zM352 1520v246h227v-246h-227z" />
<glyph unicode="&#xd0;" horiz-adv-x="1523" d="M16 651v156h134v627h645q385 0 544 -211q119 -158 119 -445q0 -469 -180 -641q-139 -133 -475 -133h-653v647h-134zM442 248l344 2q207 0 282 94t75 375q0 307 -109 407q-72 66 -243 66l-349 -2v-383h351v-156h-351v-403z" />
<glyph unicode="&#xd1;" horiz-adv-x="1536" d="M150 4v1430h374l586 -1033v1033h281v-1430h-338l-615 1086v-1086h-288zM476 1505q27 113 69.5 164t122.5 51q55 0 129 -21.5t104 -21.5q63 0 93 74h88q-51 -219 -199 -219q-39 0 -96 12q-133 29 -135 29q-63 0 -90 -68h-86z" />
<glyph unicode="&#xd2;" horiz-adv-x="1527" d="M57 723q0 307 111 483q92 145 270 209q133 47 324 47q303 0 471 -116q141 -98 199 -285q41 -135 41 -342q0 -406 -218 -592q-178 -154 -489 -154q-162 0 -281 37q-186 57 -292 205q-136 186 -136 508zM373 723q0 -236 57 -344q88 -168 334 -168q215 0 309 139 q82 121 82 367q0 281 -113 403q-94 102 -278 103q-182 0 -286.5 -126t-104.5 -374zM381 1788h275l184 -270h-129z" />
<glyph unicode="&#xd3;" horiz-adv-x="1527" d="M57 723q0 307 111 483q92 145 270 209q133 47 324 47q303 0 471 -116q141 -98 199 -285q41 -135 41 -342q0 -406 -218 -592q-178 -154 -489 -154q-162 0 -281 37q-186 57 -292 205q-136 186 -136 508zM373 723q0 -236 57 -344q88 -168 334 -168q215 0 309 139 q82 121 82 367q0 281 -113 403q-94 102 -278 103q-182 0 -286.5 -126t-104.5 -374zM637 1511l185 271h274l-332 -271h-127z" />
<glyph unicode="&#xd4;" horiz-adv-x="1527" d="M57 723q0 307 111 483q92 145 270 209q133 47 324 47q303 0 471 -116q141 -98 199 -285q41 -135 41 -342q0 -406 -218 -592q-178 -154 -489 -154q-162 0 -281 37q-186 57 -292 205q-136 186 -136 508zM373 723q0 -236 57 -344q88 -168 334 -168q215 0 309 139 q82 121 82 367q0 281 -113 403q-94 102 -278 103q-182 0 -286.5 -126t-104.5 -374zM439 1508l180 270h233l183 -270h-129l-170 141l-172 -141h-125z" />
<glyph unicode="&#xd5;" horiz-adv-x="1527" d="M57 723q0 307 111 483q92 145 270 209q133 47 324 47q303 0 471 -116q141 -98 199 -285q41 -135 41 -342q0 -406 -218 -592q-178 -154 -489 -154q-162 0 -281 37q-186 57 -292 205q-136 186 -136 508zM373 723q0 -236 57 -344q88 -168 334 -168q215 0 309 139 q82 121 82 367q0 281 -113 403q-94 102 -278 103q-182 0 -286.5 -126t-104.5 -374zM443 1511q27 113 69.5 164t122.5 51q55 0 129 -21.5t104 -21.5q63 0 93 74h88q-51 -219 -199 -219q-39 0 -96 12q-133 29 -135 29q-63 0 -90 -68h-86z" />
<glyph unicode="&#xd6;" horiz-adv-x="1527" d="M57 723q0 307 111 483q92 145 270 209q133 47 324 47q303 0 471 -116q141 -98 199 -285q41 -135 41 -342q0 -406 -218 -592q-178 -154 -489 -154q-162 0 -281 37q-186 57 -292 205q-136 186 -136 508zM373 723q0 -236 57 -344q88 -168 334 -168q215 0 309 139 q82 121 82 367q0 281 -113 403q-94 102 -278 103q-182 0 -286.5 -126t-104.5 -374zM463 1518v246h227v-246h-227zM805 1518v246h227v-246h-227z" />
<glyph unicode="&#xd7;" horiz-adv-x="1280" d="M152 948l137 137l348 -350l336 342l133 -135l-336 -342l348 -354l-135 -135l-348 350l-342 -342l-135 133l340 346z" />
<glyph unicode="&#xd8;" horiz-adv-x="1527" d="M25 -18l178 217q-70 90 -108 216t-38 308q0 307 111 483q92 145 270 209q133 47 324 47q139 0 236.5 -20.5t179.5 -63.5l71 86l176 4l-137 -168q111 -100 154 -270q31 -121 31 -311q0 -406 -218 -592q-178 -154 -489 -154q-127 0 -221 21q-147 33 -252 117l-107 -127z M373 723q0 -115 7 -169t26 -110l591 715q-47 33 -106.5 48.5t-126.5 15.5q-182 0 -286.5 -126t-104.5 -374zM469 322q47 -53 117.5 -82t177.5 -29q215 0 309 139q82 121 82 367q0 221 -70 342z" />
<glyph unicode="&#xd9;" horiz-adv-x="1517" d="M147 522v912h289v-861q-2 -41 -2 -67q0 -125 49 -193q76 -104 279 -104q180 0 249.5 80t69.5 284v861h289v-869v-71q0 -211 -88 -324q-143 -182 -520 -182q-420 0 -551 207q-64 100 -64 327zM418 1778h275l184 -270h-129z" />
<glyph unicode="&#xda;" horiz-adv-x="1517" d="M147 522v912h289v-861q-2 -41 -2 -67q0 -125 49 -193q76 -104 279 -104q180 0 249.5 80t69.5 284v861h289v-869v-71q0 -211 -88 -324q-143 -182 -520 -182q-420 0 -551 207q-64 100 -64 327zM684 1515l185 271h274l-332 -271h-127z" />
<glyph unicode="&#xdb;" horiz-adv-x="1517" d="M147 522v912h289v-861q-2 -41 -2 -67q0 -125 49 -193q76 -104 279 -104q180 0 249.5 80t69.5 284v861h289v-869v-71q0 -211 -88 -324q-143 -182 -520 -182q-420 0 -551 207q-64 100 -64 327zM476 1506l180 270h233l183 -270h-129l-170 141l-172 -141h-125z" />
<glyph unicode="&#xdc;" horiz-adv-x="1517" d="M147 522v912h289v-861q-2 -41 -2 -67q0 -125 49 -193q76 -104 279 -104q180 0 249.5 80t69.5 284v861h289v-869v-71q0 -211 -88 -324q-143 -182 -520 -182q-420 0 -551 207q-64 100 -64 327zM502 1513v246h227v-246h-227zM844 1513v246h227v-246h-227z" />
<glyph unicode="&#xdd;" horiz-adv-x="1224" d="M-72 1434h328l350 -549l355 549h337l-540 -799v-631h-295l-2 631zM542 1509l185 271h274l-332 -271h-127z" />
<glyph unicode="&#xde;" horiz-adv-x="1470" d="M150 4v1430h292v-277h387q266 0 402 -78q174 -100 174 -338q0 -244 -193 -344q-141 -74 -405 -73h-367v-320h-290zM442 573h365q274 0 274 168q0 80 -65.5 124t-200.5 44h-24h-349v-336z" />
<glyph unicode="&#xdf;" horiz-adv-x="1361" d="M20 852v199h195v63q-2 43 -2 68q0 115 41 168q66 84 244 84h284q156 0 238 -45q129 -70 129 -254q0 -72 -21.5 -121t-78.5 -88l-218 -129q-14 -8 -27 -16.5t-9 -18.5q6 -16 41 -31l192 -84q127 -57 178 -124.5t51 -178.5q0 -150 -63 -235q-78 -104 -238 -105h-356v209 h234q76 0 116 25q49 31 49 96q0 63 -41 100q-23 18 -102 55l-219 103q-47 25 -66.5 63.5t-19.5 85.5q0 84 43 129q25 25 104 72l133 82q39 25 46 31q23 25 22 67q0 63 -28.5 88t-100.5 25l-121 6q-156 0 -155 -104v-1133h-279v848h-195z" />
<glyph unicode="&#xe0;" horiz-adv-x="1255" d="M74 311q0 174 98 249t313 75h365q0 119 -51 162t-199 43h-457v211h559q168 0 256 -47q168 -90 168 -345v-655h-733q-152 0 -235.5 82t-83.5 225zM356 319q0 -59 39 -85.5t111 -26.5h346v227h-326q-84 0 -118 -16q-52 -25 -52 -99zM254 1417h275l184 -270h-129z" />
<glyph unicode="&#xe1;" horiz-adv-x="1255" d="M74 311q0 174 98 249t313 75h365q0 119 -51 162t-199 43h-457v211h559q168 0 256 -47q168 -90 168 -345v-655h-733q-152 0 -235.5 82t-83.5 225zM356 319q0 -59 39 -85.5t111 -26.5h346v227h-326q-84 0 -118 -16q-52 -25 -52 -99zM464 1147l185 271h274l-332 -271h-127z " />
<glyph unicode="&#xe2;" horiz-adv-x="1255" d="M74 311q0 174 98 249t313 75h365q0 119 -51 162t-199 43h-457v211h559q168 0 256 -47q168 -90 168 -345v-655h-733q-152 0 -235.5 82t-83.5 225zM356 319q0 -59 39 -85.5t111 -26.5h346v227h-326q-84 0 -118 -16q-52 -25 -52 -99zM295 1159l180 270h233l183 -270h-129 l-170 141l-172 -141h-125z" />
<glyph unicode="&#xe3;" horiz-adv-x="1255" d="M74 311q0 174 98 249t313 75h365q0 119 -51 162t-199 43h-457v211h559q168 0 256 -47q168 -90 168 -345v-655h-733q-152 0 -235.5 82t-83.5 225zM356 319q0 -59 39 -85.5t111 -26.5h346v227h-326q-84 0 -118 -16q-52 -25 -52 -99zM297 1147q27 113 69.5 164t122.5 51 q55 0 129 -21.5t104 -21.5q63 0 93 74h88q-51 -219 -199 -219q-39 0 -96 12q-133 29 -135 29q-63 0 -90 -68h-86z" />
<glyph unicode="&#xe4;" horiz-adv-x="1255" d="M74 311q0 174 98 249t313 75h365q0 119 -51 162t-199 43h-457v211h559q168 0 256 -47q168 -90 168 -345v-655h-733q-152 0 -235.5 82t-83.5 225zM356 319q0 -59 39 -85.5t111 -26.5h346v227h-326q-84 0 -118 -16q-52 -25 -52 -99zM307 1165v246h227v-246h-227zM649 1165 v246h227v-246h-227z" />
<glyph unicode="&#xe5;" horiz-adv-x="1255" d="M74 311q0 174 98 249t313 75h365q0 119 -51 162t-199 43h-457v211h559q168 0 256 -47q168 -90 168 -345v-655h-733q-152 0 -235.5 82t-83.5 225zM356 319q0 -59 39 -85.5t111 -26.5h346v227h-326q-84 0 -118 -16q-52 -25 -52 -99zM387 1323q0 80 53.5 135t132.5 55 q80 0 135.5 -53t55.5 -133t-53.5 -135t-133.5 -55t-135 53t-55 133zM487 1325q0 -37 29 -61.5t66 -24.5t61.5 28.5t24.5 65.5t-29 61.5t-66 24.5t-61.5 -28.5t-24.5 -65.5z" />
<glyph unicode="&#xe6;" horiz-adv-x="1843" d="M74 311q0 174 98 249t313 75h365q0 119 -51 162t-199 43h-457v211h559q92 0 144 -11q96 -18 162 -75q76 53 159.5 72.5t178.5 19.5h397v-211h-361q-141 0 -198.5 -44t-57.5 -163h617v-215h-621q0 -115 52.5 -160t205.5 -45h363v-209h-397q-61 0 -115.5 9.5t-104.5 29.5 v-45h-733q-152 0 -235.5 82t-83.5 225zM356 319q0 -59 39 -85.5t111 -26.5h346v227h-326q-84 0 -118 -16q-52 -25 -52 -99z" />
<glyph unicode="&#xe7;" horiz-adv-x="1042" d="M61 524q0 317 195 443q129 84 350 84h367v-224h-348q-162 0 -226 -84q-55 -74 -55 -219q0 -176 90 -248q70 -55 219 -55h320v-217h-316v-35q154 0 154 -110q0 -57 -37 -90t-121 -33q-57 0 -94 6q-53 14 -82 20v74q23 -6 37 -8q86 -18 117 -18q29 0 43 6q27 12 26 43 q0 37 -88 37h-20v108q-225 0 -365 115q-166 137 -166 405z" />
<glyph unicode="&#xe8;" horiz-adv-x="1042" d="M61 528q0 311 191 439q125 84 332 84h397v-211h-360q-141 0 -198.5 -44t-57.5 -163h616v-215h-621q0 -115 52.5 -160t205.5 -45h363v-209h-397q-256 0 -389.5 141t-133.5 383zM291 1429h275l184 -270h-129z" />
<glyph unicode="&#xe9;" horiz-adv-x="1042" d="M61 528q0 311 191 439q125 84 332 84h397v-211h-360q-141 0 -198.5 -44t-57.5 -163h616v-215h-621q0 -115 52.5 -160t205.5 -45h363v-209h-397q-256 0 -389.5 141t-133.5 383zM532 1165l185 271h274l-332 -271h-127z" />
<glyph unicode="&#xea;" horiz-adv-x="1042" d="M61 528q0 311 191 439q125 84 332 84h397v-211h-360q-141 0 -198.5 -44t-57.5 -163h616v-215h-621q0 -115 52.5 -160t205.5 -45h363v-209h-397q-256 0 -389.5 141t-133.5 383zM330 1168l180 270h233l183 -270h-129l-170 141l-172 -141h-125z" />
<glyph unicode="&#xeb;" horiz-adv-x="1042" d="M61 528q0 311 191 439q125 84 332 84h397v-211h-360q-141 0 -198.5 -44t-57.5 -163h616v-215h-621q0 -115 52.5 -160t205.5 -45h363v-209h-397q-256 0 -389.5 141t-133.5 383zM297 1184v246h227v-246h-227zM639 1184v246h227v-246h-227z" />
<glyph unicode="&#xec;" horiz-adv-x="526" d="M125 4v1047h276v-1047h-276zM-86 1409h275l184 -270h-129z" />
<glyph unicode="&#xed;" horiz-adv-x="526" d="M125 4v1047h276v-1047h-276zM135 1149l185 271h274l-332 -271h-127z" />
<glyph unicode="&#xee;" horiz-adv-x="526" d="M125 4v1047h276v-1047h-276zM-28 1155l180 270h233l183 -270h-129l-170 141l-172 -141h-125z" />
<glyph unicode="&#xef;" horiz-adv-x="526" d="M125 4v1047h276v-1047h-276zM-22 1153v246h227v-246h-227zM320 1153v246h227v-246h-227z" />
<glyph unicode="&#xf0;" horiz-adv-x="1208" d="M53 500q0 229 142 370q133 133 323 134q96 0 211 -43q-88 141 -182 210l-344 -90l-35 117l260 72l-207 164l287 2l166 -107l354 88l29 -114l-256 -66q143 -125 221 -250q129 -209 129 -467q0 -207 -123 -354q-152 -182 -428 -182q-238 0 -385 125q-162 137 -162 391z M332 498q0 -117 65 -199q74 -92 205 -92q158 0 223 102q47 72 47 185q0 131 -57 206q-68 90 -209 91q-113 0 -193.5 -81t-80.5 -212z" />
<glyph unicode="&#xf1;" horiz-adv-x="1185" d="M125 4v1047h512q225 0 319 -72q113 -86 113 -311v-664h-270v629v31q0 74 -25 104q-43 53 -162 53h-221v-817h-266zM279 1141q27 113 69.5 164t122.5 51q55 0 129 -21.5t104 -21.5q63 0 93 74h88q-51 -219 -199 -219q-39 0 -96 12q-133 29 -135 29q-63 0 -90 -68h-86z" />
<glyph unicode="&#xf2;" horiz-adv-x="1204" d="M53 528q0 307 199 445q141 98 350 98q201 0 346 -102q203 -143 203 -441q0 -250 -148.5 -398t-400.5 -148q-250 0 -399.5 145t-149.5 401zM332 524q0 -125 69 -217q78 -104 199 -104q125 0 203 100q70 90 69 221q0 139 -67 228q-74 96 -201 96q-100 0 -178 -76 q-94 -90 -94 -248zM149 1436h275l184 -270h-129z" />
<glyph unicode="&#xf3;" horiz-adv-x="1204" d="M53 528q0 307 199 445q141 98 350 98q201 0 346 -102q203 -143 203 -441q0 -250 -148.5 -398t-400.5 -148q-250 0 -399.5 145t-149.5 401zM332 524q0 -125 69 -217q78 -104 199 -104q125 0 203 100q70 90 69 221q0 139 -67 228q-74 96 -201 96q-100 0 -178 -76 q-94 -90 -94 -248zM575 1171l185 271h274l-332 -271h-127z" />
<glyph unicode="&#xf4;" horiz-adv-x="1204" d="M53 528q0 307 199 445q141 98 350 98q201 0 346 -102q203 -143 203 -441q0 -250 -148.5 -398t-400.5 -148q-250 0 -399.5 145t-149.5 401zM332 524q0 -125 69 -217q78 -104 199 -104q125 0 203 100q70 90 69 221q0 139 -67 228q-74 96 -201 96q-100 0 -178 -76 q-94 -90 -94 -248zM326 1172l180 270h233l183 -270h-129l-170 141l-172 -141h-125z" />
<glyph unicode="&#xf5;" horiz-adv-x="1204" d="M53 528q0 307 199 445q141 98 350 98q201 0 346 -102q203 -143 203 -441q0 -250 -148.5 -398t-400.5 -148q-250 0 -399.5 145t-149.5 401zM332 524q0 -125 69 -217q78 -104 199 -104q125 0 203 100q70 90 69 221q0 139 -67 228q-74 96 -201 96q-100 0 -178 -76 q-94 -90 -94 -248zM304 1165q27 113 69.5 164t122.5 51q55 0 129 -21.5t104 -21.5q63 0 93 74h88q-51 -219 -199 -219q-39 0 -96 12q-133 29 -135 29q-63 0 -90 -68h-86z" />
<glyph unicode="&#xf6;" horiz-adv-x="1204" d="M53 528q0 307 199 445q141 98 350 98q201 0 346 -102q203 -143 203 -441q0 -250 -148.5 -398t-400.5 -148q-250 0 -399.5 145t-149.5 401zM332 524q0 -125 69 -217q78 -104 199 -104q125 0 203 100q70 90 69 221q0 139 -67 228q-74 96 -201 96q-100 0 -178 -76 q-94 -90 -94 -248zM320 1165v246h227v-246h-227zM662 1165v246h227v-246h-227z" />
<glyph unicode="&#xf7;" horiz-adv-x="1644" d="M248 504v188h1147v-188h-1147zM709 193v241h227v-241h-227zM713 762v242h227v-242h-227z" />
<glyph unicode="&#xf8;" horiz-adv-x="1208" d="M51 526q0 289 201 432q150 106 338 107q115 0 168 -9t149 -63l62 72h168l-123 -152q137 -170 137 -397q0 -215 -121 -356q-147 -174 -442 -174q-78 0 -143.5 17t-139.5 54l-61 -69h-166l125 143l-94 139q-58 111 -58 256zM317 545q0 -109 50 -207l397 479q-59 27 -76 33 q-41 14 -88 14q-121 0 -202 -87t-81 -232zM453 238q35 -23 72.5 -35.5t82.5 -12.5q98 0 170 60q106 88 107 272q0 80 -35 191z" />
<glyph unicode="&#xf9;" horiz-adv-x="1189" d="M117 385v666h264v-645q0 -88 35 -130q43 -51 147 -51h228v826h266v-1047h-514q-219 0 -316 78q-110 88 -110 303zM168 1448h275l184 -270h-129z" />
<glyph unicode="&#xfa;" horiz-adv-x="1189" d="M117 385v666h264v-645q0 -88 35 -130q43 -51 147 -51h228v826h266v-1047h-514q-219 0 -316 78q-110 88 -110 303zM563 1177l185 271h274l-332 -271h-127z" />
<glyph unicode="&#xfb;" horiz-adv-x="1189" d="M117 385v666h264v-645q0 -88 35 -130q43 -51 147 -51h228v826h266v-1047h-514q-219 0 -316 78q-110 88 -110 303zM289 1159l180 270h233l183 -270h-129l-170 141l-172 -141h-125z" />
<glyph unicode="&#xfc;" horiz-adv-x="1189" d="M117 385v666h264v-645q0 -88 35 -130q43 -51 147 -51h228v826h266v-1047h-514q-219 0 -316 78q-110 88 -110 303zM289 1171v246h227v-246h-227zM631 1171v246h227v-246h-227z" />
<glyph unicode="&#xfd;" horiz-adv-x="985" d="M117 401v650h260v-625q0 -106 22 -141q39 -59 164 -60h228v826h266v-1022q0 -195 -90 -295q-96 -109 -295 -109h-537v207h486q170 0 170 172h-248q-223 0 -318 78q-108 90 -108 319zM571 1175l185 271h274l-332 -271h-127z" />
<glyph unicode="&#xfe;" horiz-adv-x="1208" d="M121 -375v1809h272l-2 -381l258 -2q213 0 359.5 -136.5t146.5 -359.5q0 -264 -125 -403q-131 -147 -397 -148l-242 -2l2 -379zM391 223l199 2q182 0 246 115q37 68 36 195q0 176 -79 241q-68 55 -226 55h-174z" />
<glyph unicode="&#xff;" horiz-adv-x="1189" d="M117 401v650h260v-625q0 -106 22 -141q39 -59 164 -60h228v826h266v-1022q0 -195 -90 -295q-96 -109 -295 -109h-537v207h486q170 0 170 172h-248q-223 0 -318 78q-108 90 -108 319zM291 1163v246h227v-246h-227zM633 1163v246h227v-246h-227z" />
<glyph unicode="&#x131;" horiz-adv-x="526" d="M125 4v1047h276v-1047h-276z" />
<glyph unicode="&#x152;" horiz-adv-x="2420" d="M57 723q0 307 111 483q92 145 270 209q133 47 324 47q190 0 324.5 -43t218.5 -125q84 76 205.5 111t271.5 35h491v-242h-487q-162 0 -247 -85t-85 -259h819v-244h-825q0 -199 94 -284q80 -74 244 -74h487v-242h-499q-154 0 -273 40t-207 126q-92 -104 -230 -153.5 t-298 -49.5q-162 0 -281 37q-186 57 -292 205q-136 186 -136 508zM373 723q0 -236 57 -344q88 -168 334 -168q215 0 309 139q82 121 82 367q0 281 -113 403q-94 102 -278 103q-182 0 -286.5 -126t-104.5 -374z" />
<glyph unicode="&#x153;" horiz-adv-x="1898" d="M53 528q0 246 154.5 394.5t394.5 148.5q102 0 193 -27q115 -35 198 -110q76 68 187 96q80 20 184 21h397v-211h-360q-141 0 -198.5 -44t-57.5 -163h616v-215h-620q0 -115 52 -160t206 -45h362v-209h-397q-121 0 -211 31t-160 92q-141 -145 -391 -145q-287 0 -432 186 q-117 149 -117 360zM332 524q0 -125 69 -217q78 -104 199 -104q125 0 203 100q70 90 69 221q0 139 -67 228q-74 96 -201 96q-100 0 -178 -76q-94 -90 -94 -248z" />
<glyph unicode="&#x178;" horiz-adv-x="1224" d="M-72 1434h328l350 -549l355 549h337l-540 -799v-631h-295l-2 631zM330 1534v225h207v-225h-207zM643 1534v225h209v-225h-209z" />
<glyph unicode="&#x2c6;" d="M197 1184l180 270h233l183 -270h-129l-170 141l-172 -141h-125z" />
<glyph unicode="&#x2da;" horiz-adv-x="649" d="M129 1194q0 80 53.5 135t132.5 55q80 0 135.5 -53t55.5 -133t-53.5 -135t-133.5 -55t-135 53t-55 133zM229 1196q0 -37 29 -61.5t66 -24.5t61.5 28.5t24.5 65.5t-29 61.5t-66 24.5t-61.5 -28.5t-24.5 -65.5z" />
<glyph unicode="&#x2dc;" d="M193 1196q27 113 69.5 164t122.5 51q55 0 129 -21.5t104 -21.5q63 0 93 74h88q-51 -219 -199 -219q-39 0 -96 12q-133 29 -135 29q-63 0 -90 -68h-86z" />
<glyph unicode="&#x2000;" horiz-adv-x="940" />
<glyph unicode="&#x2001;" horiz-adv-x="1882" />
<glyph unicode="&#x2002;" horiz-adv-x="940" />
<glyph unicode="&#x2003;" horiz-adv-x="1882" />
<glyph unicode="&#x2004;" horiz-adv-x="626" />
<glyph unicode="&#x2005;" horiz-adv-x="468" />
<glyph unicode="&#x2006;" horiz-adv-x="313" />
<glyph unicode="&#x2007;" horiz-adv-x="313" />
<glyph unicode="&#x2008;" horiz-adv-x="233" />
<glyph unicode="&#x2009;" horiz-adv-x="374" />
<glyph unicode="&#x200a;" horiz-adv-x="104" />
<glyph unicode="&#x2010;" horiz-adv-x="765" d="M53 418v241h658v-241h-658z" />
<glyph unicode="&#x2011;" horiz-adv-x="765" d="M53 418v241h658v-241h-658z" />
<glyph unicode="&#x2012;" horiz-adv-x="765" d="M53 418v241h658v-241h-658z" />
<glyph unicode="&#x2013;" d="M4 418v241h981v-241h-981z" />
<glyph unicode="&#x2014;" horiz-adv-x="1976" d="M4 418v241h1970l-2 -241h-1968z" />
<glyph unicode="&#x2018;" horiz-adv-x="423" d="M78 1294v136h229v-242h-108v-184q-74 72 -97.5 131t-23.5 159z" />
<glyph unicode="&#x2019;" horiz-adv-x="423" d="M78 1188v242h229v-136q0 -106 -21.5 -161.5t-99.5 -128.5v184h-108z" />
<glyph unicode="&#x201a;" horiz-adv-x="423" d="M82 4v242h229v-135q0 -106 -21.5 -161.5t-99.5 -129.5v184h-108z" />
<glyph unicode="&#x201c;" horiz-adv-x="733" d="M78 1294v136h229v-242h-108v-184q-74 72 -97.5 131t-23.5 159zM422 1303v135h229v-242h-108v-184q-74 72 -97.5 131.5t-23.5 159.5z" />
<glyph unicode="&#x201d;" horiz-adv-x="733" d="M78 1196v242h229v-135q0 -106 -21.5 -162t-99.5 -129v184h-108zM422 1188v242h229v-136q0 -106 -21.5 -161.5t-99.5 -128.5v184h-108z" />
<glyph unicode="&#x201e;" horiz-adv-x="692" d="M82 4v242h229v-135q0 -106 -21.5 -161.5t-99.5 -129.5v184h-108zM420 4v242h229v-135q0 -106 -21.5 -161.5t-99.5 -129.5v184h-108z" />
<glyph unicode="&#x2022;" horiz-adv-x="389" d="M51 756q0 59 43 102t103 43q57 0 100 -43t43 -102t-41 -102.5t-102 -43.5q-59 0 -102.5 43.5t-43.5 102.5z" />
<glyph unicode="&#x2026;" horiz-adv-x="1976" d="M211 4v242h229v-242h-229zM870 4v242h228v-242h-228zM1528 4v242h229v-242h-229z" />
<glyph unicode="&#x202f;" horiz-adv-x="374" />
<glyph unicode="&#x2039;" horiz-adv-x="786" d="M53 528l336 344h287l-342 -344l334 -344h-295z" />
<glyph unicode="&#x203a;" horiz-adv-x="786" d="M57 184l342 344l-333 344h294l320 -344l-336 -344h-287z" />
<glyph unicode="&#x205f;" horiz-adv-x="468" />
<glyph unicode="&#x2122;" horiz-adv-x="1644" d="M205 1321v104h459v-104h-162v-422h-133v422h-164zM780 899v526h181l131 -331l116 331h183v-526h-119v393l-8 2l-154 -395h-47l-156 395l-8 -2v-393h-119z" />
<glyph unicode="&#xe000;" horiz-adv-x="1050" d="M0 1050h1050v-1050h-1050v1050z" />
<glyph unicode="&#xfb01;" horiz-adv-x="1302" d="M901 4v1047h276v-1047h-276zM901 1180v254h276v-254h-276zM20 848v203h195v63q0 18 -1 34.5t-1 31.5q0 115 41 168q66 86 244 86h260v-193h-111q-86 0 -120.5 -30.5t-34.5 -92.5v-67h266v-205h-264v-842h-279v844h-195z" />
<glyph unicode="&#xfb02;" horiz-adv-x="1294" d="M897 4v1430h276v-1430h-276zM20 848v203h195v63q0 18 -1 34.5t-1 31.5q0 115 41 168q66 86 244 86h260v-193h-111q-86 0 -120.5 -30.5t-34.5 -92.5v-67h266v-205h-264v-842h-279v844h-195z" />
<glyph unicode="&#xfb03;" horiz-adv-x="2078" d="M1677 4v1047h276v-1047h-276zM1677 1180v254h276v-254h-276zM796 848v203h195v63q0 18 -1 34.5t-1 31.5q0 115 41 168q66 86 244 86h260v-193h-111q-86 0 -120.5 -30.5t-34.5 -92.5v-67h266v-205h-264v-842h-279v844h-195zM20 848v203h195v63q0 18 -1 34.5t-1 31.5 q0 115 41 168q66 86 244 86h260v-193h-111q-86 0 -120.5 -30.5t-34.5 -92.5v-67h266v-205h-264v-842h-279v844h-195z" />
<glyph unicode="&#xfb04;" horiz-adv-x="2070" d="M1673 4v1430h276v-1430h-276zM796 848v203h195v63q0 18 -1 34.5t-1 31.5q0 115 41 168q66 86 244 86h260v-193h-111q-86 0 -120.5 -30.5t-34.5 -92.5v-67h266v-205h-264v-842h-279v844h-195zM20 848v203h195v63q0 18 -1 34.5t-1 31.5q0 115 41 168q66 86 244 86h260v-193 h-111q-86 0 -120.5 -30.5t-34.5 -92.5v-67h266v-205h-264v-842h-279v844h-195z" />
</font>
</defs>
</svg>
